# xmcd CD database file
#
# Track frame offsets:
#	150
#	22132
#	51236
#	68309
#	89688
#	114526
#	151083
#	179936
#	210259
#	227472
#
# Disc length: 3547 seconds
#
# Revision: 0
# Processed by: cddbd v1.5.1PL2 Copyright (c) Steve Scherf et al.
# Submitted via: CDex 1.51
#
DISCID=7f0dd90a
DTITLE=Toomas Rull - Eesti hääled
DYEAR=2005
DGENRE=Jazz
TTITLE0=Maian Kärmas/Pigilind
TTITLE1=Aarne Üksküla/Heinaaeg
TTITLE2=Maarja/Un Mundo Para Dos
TTITLE3=Marko Matvere/Meri mässab
TTITLE4=Riho Sibul/Novembrispliin
TTITLE5=Anu Lamp/Väike vahtrapuu
TTITLE6=Fred Jüssi/Lõunatuul
TTITLE7=Jaan Tätte/Hääled
TTITLE8=Evert Sundja/Help Me
TTITLE9=Kiigelaulukuuik/LIZARB
EXTD=YEAR: 2005
EXTT0=
EXTT1=
EXTT2=
EXTT3=
EXTT4=
EXTT5=
EXTT6=
EXTT7=
EXTT8=
EXTT9=
PLAYORDER=
